<svg width="67" height="22" viewBox="0 0 67 22" fill="none" xmlns="http://www.w3.org/2000/svg">
<path d="M6.29443 9.71143C4.44515 9.17985 3.09749 8.52848 2.25146 7.75732C1.41292 6.97868 0.993652 6.02035 0.993652 4.88232C0.993652 3.59456 1.50651 2.53141 2.53223 1.69287C3.56543 0.846842 4.9056 0.423828 6.55273 0.423828C7.67578 0.423828 8.67529 0.640951 9.55127 1.0752C10.4347 1.50944 11.116 2.1084 11.5952 2.87207C12.0819 3.63574 12.3252 4.47054 12.3252 5.37646H10.1577C10.1577 4.38818 9.84326 3.61328 9.21436 3.05176C8.58545 2.48275 7.69824 2.19824 6.55273 2.19824C5.48958 2.19824 4.65853 2.43408 4.05957 2.90576C3.4681 3.36995 3.17236 4.01758 3.17236 4.84863C3.17236 5.51497 3.45312 6.08024 4.01465 6.54443C4.58366 7.00114 5.54574 7.42041 6.90088 7.80225C8.26351 8.18408 9.32666 8.6071 10.0903 9.07129C10.8615 9.52799 11.4305 10.0633 11.7974 10.6772C12.1717 11.2912 12.3589 12.0137 12.3589 12.8447C12.3589 14.1699 11.8423 15.2331 10.8091 16.0342C9.77588 16.8278 8.39453 17.2246 6.66504 17.2246C5.54199 17.2246 4.49382 17.0112 3.52051 16.5845C2.5472 16.1502 1.79476 15.5588 1.26318 14.8101C0.739095 14.0614 0.477051 13.2116 0.477051 12.2607H2.64453C2.64453 13.249 3.00765 14.0314 3.73389 14.6079C4.46761 15.1769 5.44466 15.4614 6.66504 15.4614C7.80306 15.4614 8.67529 15.2293 9.28174 14.7651C9.88818 14.3009 10.1914 13.6683 10.1914 12.8672C10.1914 12.0661 9.91064 11.4484 9.34912 11.0142C8.7876 10.5724 7.76937 10.1382 6.29443 9.71143ZM17.0645 17H14.9868V4.84863H17.0645V17ZM14.8184 1.62549C14.8184 1.28857 14.9194 1.00407 15.1216 0.771973C15.3312 0.539876 15.6382 0.423828 16.0425 0.423828C16.4468 0.423828 16.7537 0.539876 16.9634 0.771973C17.173 1.00407 17.2778 1.28857 17.2778 1.62549C17.2778 1.9624 17.173 2.24316 16.9634 2.46777C16.7537 2.69238 16.4468 2.80469 16.0425 2.80469C15.6382 2.80469 15.3312 2.69238 15.1216 2.46777C14.9194 2.24316 14.8184 1.9624 14.8184 1.62549ZM19.9058 10.8232C19.9058 8.92904 20.3438 7.42415 21.2197 6.30859C22.0957 5.18555 23.2562 4.62402 24.7012 4.62402C26.1836 4.62402 27.3403 5.14811 28.1714 6.19629L28.2725 4.84863H30.1704V16.708C30.1704 18.2803 29.7025 19.5194 28.7666 20.4253C27.8382 21.3312 26.5879 21.7842 25.0156 21.7842C24.1396 21.7842 23.2824 21.597 22.4438 21.2227C21.6053 20.8483 20.9652 20.3354 20.5234 19.6841L21.6016 18.4375C22.4925 19.5381 23.5819 20.0884 24.8696 20.0884C25.8804 20.0884 26.6665 19.8039 27.228 19.2349C27.797 18.6659 28.0815 17.8647 28.0815 16.8315V15.7871C27.2505 16.7454 26.1162 17.2246 24.6787 17.2246C23.2562 17.2246 22.1032 16.6519 21.2197 15.5063C20.3438 14.3608 19.9058 12.7998 19.9058 10.8232ZM21.9946 11.0591C21.9946 12.4292 22.2754 13.5073 22.8369 14.2935C23.3984 15.0721 24.1846 15.4614 25.1953 15.4614C26.5055 15.4614 27.4676 14.8662 28.0815 13.6758V8.12793C27.4451 6.96745 26.4906 6.38721 25.2178 6.38721C24.207 6.38721 23.4172 6.78027 22.8481 7.56641C22.2791 8.35254 21.9946 9.51676 21.9946 11.0591ZM35.2803 4.84863L35.3477 6.37598C36.276 5.20801 37.4889 4.62402 38.9863 4.62402C41.5544 4.62402 42.8496 6.07275 42.8721 8.97021V17H40.7944V8.95898C40.7869 8.08301 40.5848 7.43538 40.188 7.01611C39.7987 6.59684 39.1885 6.38721 38.3574 6.38721C37.6836 6.38721 37.0921 6.56689 36.583 6.92627C36.0739 7.28564 35.6771 7.75732 35.3926 8.34131V17H33.3149V4.84863H35.2803ZM53.9678 17H51.8901V4.84863H53.9678V17ZM51.7217 1.62549C51.7217 1.28857 51.8228 1.00407 52.0249 0.771973C52.2345 0.539876 52.5415 0.423828 52.9458 0.423828C53.3501 0.423828 53.6571 0.539876 53.8667 0.771973C54.0763 1.00407 54.1812 1.28857 54.1812 1.62549C54.1812 1.9624 54.0763 2.24316 53.8667 2.46777C53.6571 2.69238 53.3501 2.80469 52.9458 2.80469C52.5415 2.80469 52.2345 2.69238 52.0249 2.46777C51.8228 2.24316 51.7217 1.9624 51.7217 1.62549ZM59.2686 4.84863L59.3359 6.37598C60.2643 5.20801 61.4772 4.62402 62.9746 4.62402C65.5426 4.62402 66.8379 6.07275 66.8604 8.97021V17H64.7827V8.95898C64.7752 8.08301 64.5731 7.43538 64.1763 7.01611C63.7869 6.59684 63.1768 6.38721 62.3457 6.38721C61.6719 6.38721 61.0804 6.56689 60.5713 6.92627C60.0622 7.28564 59.6654 7.75732 59.3809 8.34131V17H57.3032V4.84863H59.2686Z" fill="#F7F7F7"/>
</svg>
